<svg width="365" height="47" viewBox="0 0 365 47" fill="none" xmlns="http://www.w3.org/2000/svg">
<path d="M10.892 37L0.903412 2.09091H8.96591L14.7443 26.3466H15.0341L21.4091 2.09091H28.3125L34.6705 26.3977H34.9773L40.7557 2.09091H48.8182L38.8295 37H31.6364L24.9886 14.1761H24.7159L18.0852 37H10.892Z" fill="#141414"/>
<path d="M57.2855 37.4943C55.6151 37.4943 54.1264 37.2045 52.8196 36.625C51.5128 36.0341 50.4787 35.1648 49.7173 34.017C48.9673 32.858 48.5923 31.4148 48.5923 29.6875C48.5923 28.233 48.8594 27.0114 49.3935 26.0227C49.9276 25.0341 50.6548 24.2386 51.5753 23.6364C52.4957 23.0341 53.5412 22.5795 54.7117 22.2727C55.8935 21.9659 57.1321 21.75 58.4276 21.625C59.9503 21.4659 61.1776 21.3182 62.1094 21.1818C63.0412 21.0341 63.7173 20.8182 64.1378 20.5341C64.5582 20.25 64.7685 19.8295 64.7685 19.2727V19.1705C64.7685 18.0909 64.4276 17.2557 63.7457 16.6648C63.0753 16.0739 62.1207 15.7784 60.8821 15.7784C59.5753 15.7784 58.5355 16.0682 57.7628 16.6477C56.9901 17.2159 56.4787 17.9318 56.2287 18.7955L49.5128 18.25C49.8537 16.6591 50.5242 15.2841 51.5242 14.125C52.5242 12.9545 53.8139 12.0568 55.3935 11.4318C56.9844 10.7955 58.8253 10.4773 60.9162 10.4773C62.3707 10.4773 63.7628 10.6477 65.0923 10.9886C66.4332 11.3295 67.6207 11.858 68.6548 12.5739C69.7003 13.2898 70.5242 14.2102 71.1264 15.3352C71.7287 16.4489 72.0298 17.7841 72.0298 19.3409V37H65.1435V33.3693H64.9389C64.5185 34.1875 63.956 34.9091 63.2514 35.5341C62.5469 36.1477 61.7003 36.6307 60.7117 36.983C59.723 37.3239 58.581 37.4943 57.2855 37.4943ZM59.3651 32.483C60.4332 32.483 61.3764 32.2727 62.1946 31.8523C63.0128 31.4205 63.6548 30.8409 64.1207 30.1136C64.5867 29.3864 64.8196 28.5625 64.8196 27.642V24.8636C64.5923 25.0114 64.2798 25.1477 63.8821 25.2727C63.4957 25.3864 63.0582 25.4943 62.5696 25.5966C62.081 25.6875 61.5923 25.7727 61.1037 25.8523C60.6151 25.9205 60.1719 25.983 59.7742 26.0398C58.9219 26.1648 58.1776 26.3636 57.5412 26.6364C56.9048 26.9091 56.4105 27.2784 56.0582 27.7443C55.706 28.1989 55.5298 28.767 55.5298 29.4489C55.5298 30.4375 55.8878 31.1932 56.6037 31.7159C57.331 32.2273 58.2514 32.483 59.3651 32.483Z" fill="#141414"/>
<path d="M77.6634 37V10.8182H84.7031V15.3864H84.9759C85.4531 13.7614 86.2543 12.5341 87.3793 11.7045C88.5043 10.8636 89.7997 10.4432 91.2656 10.4432C91.6293 10.4432 92.0213 10.4659 92.4418 10.5114C92.8622 10.5568 93.2315 10.6193 93.5497 10.6989V17.142C93.2088 17.0398 92.7372 16.9489 92.1349 16.8693C91.5327 16.7898 90.9815 16.75 90.4815 16.75C89.4134 16.75 88.4588 16.983 87.6179 17.4489C86.7884 17.9034 86.1293 18.5398 85.6406 19.358C85.1634 20.1761 84.9247 21.1193 84.9247 22.1875V37H77.6634Z" fill="#141414"/>
<path d="M104.565 2.09091V37H97.304V2.09091H104.565Z" fill="#141414"/>
<path d="M122.314 37.5114C119.621 37.5114 117.303 36.9659 115.359 35.875C113.428 34.7727 111.939 33.2159 110.893 31.2045C109.848 29.1818 109.325 26.7898 109.325 24.0284C109.325 21.3352 109.848 18.9716 110.893 16.9375C111.939 14.9034 113.411 13.3182 115.308 12.1818C117.217 11.0455 119.456 10.4773 122.024 10.4773C123.751 10.4773 125.359 10.7557 126.848 11.3125C128.348 11.858 129.655 12.6818 130.768 13.7841C131.893 14.8864 132.768 16.2727 133.393 17.9432C134.018 19.6023 134.331 21.5455 134.331 23.7727V25.767H112.223V21.267H127.496C127.496 20.2216 127.268 19.2955 126.814 18.4886C126.359 17.6818 125.729 17.0511 124.922 16.5966C124.126 16.1307 123.2 15.8977 122.143 15.8977C121.041 15.8977 120.064 16.1534 119.212 16.6648C118.371 17.1648 117.712 17.8409 117.234 18.6932C116.757 19.5341 116.513 20.4716 116.501 21.5057V25.7841C116.501 27.0795 116.74 28.1989 117.217 29.142C117.706 30.0852 118.393 30.8125 119.28 31.3239C120.166 31.8352 121.217 32.0909 122.433 32.0909C123.24 32.0909 123.979 31.9773 124.649 31.75C125.32 31.5227 125.893 31.1818 126.371 30.7273C126.848 30.2727 127.212 29.7159 127.462 29.0568L134.178 29.5C133.837 31.1136 133.138 32.5227 132.081 33.7273C131.036 34.9205 129.683 35.8523 128.024 36.5227C126.376 37.1818 124.473 37.5114 122.314 37.5114Z" fill="#141414"/>
<path d="M142.849 46.8182C141.929 46.8182 141.065 46.7443 140.259 46.5966C139.463 46.4602 138.804 46.2841 138.281 46.0682L139.918 40.6477C140.77 40.9091 141.537 41.0511 142.219 41.0739C142.912 41.0966 143.509 40.9375 144.009 40.5966C144.52 40.2557 144.935 39.6761 145.253 38.858L145.679 37.75L136.287 10.8182H143.923L149.344 30.0455H149.616L155.088 10.8182H162.776L152.599 39.8295C152.111 41.2386 151.446 42.4659 150.605 43.5114C149.776 44.5682 148.724 45.3807 147.452 45.9489C146.179 46.5284 144.645 46.8182 142.849 46.8182Z" fill="#141414"/>
<path d="M183.754 37H175.845L187.896 2.09091H197.408L209.442 37H201.533L192.788 10.0682H192.516L183.754 37ZM183.26 23.2784H201.942V29.0398H183.26V23.2784Z" fill="#141414"/>
<path d="M220.768 2.09091V37H213.507V2.09091H220.768Z" fill="#141414"/>
<path d="M226.585 37V10.8182H233.506V15.4375H233.812C234.358 13.9034 235.267 12.6932 236.54 11.8068C237.813 10.9205 239.335 10.4773 241.108 10.4773C242.903 10.4773 244.432 10.9261 245.693 11.8239C246.955 12.7102 247.795 13.9148 248.216 15.4375H248.489C249.023 13.9375 249.989 12.7386 251.386 11.8409C252.795 10.9318 254.46 10.4773 256.381 10.4773C258.824 10.4773 260.807 11.2557 262.33 12.8125C263.864 14.358 264.631 16.5511 264.631 19.392V37H257.386V20.8239C257.386 19.3693 257 18.2784 256.227 17.5511C255.455 16.8239 254.489 16.4602 253.33 16.4602C252.011 16.4602 250.983 16.8807 250.244 17.7216C249.506 18.5511 249.136 19.6477 249.136 21.0114V37H242.097V20.6705C242.097 19.3864 241.727 18.3636 240.989 17.6023C240.261 16.8409 239.301 16.4602 238.108 16.4602C237.301 16.4602 236.574 16.6648 235.926 17.0739C235.29 17.4716 234.784 18.0341 234.409 18.7614C234.034 19.4773 233.847 20.3182 233.847 21.2841V37H226.585Z" fill="#141414"/>
<path d="M282.298 37.5114C279.605 37.5114 277.287 36.9659 275.344 35.875C273.412 34.7727 271.923 33.2159 270.878 31.2045C269.832 29.1818 269.31 26.7898 269.31 24.0284C269.31 21.3352 269.832 18.9716 270.878 16.9375C271.923 14.9034 273.395 13.3182 275.293 12.1818C277.202 11.0455 279.44 10.4773 282.009 10.4773C283.736 10.4773 285.344 10.7557 286.832 11.3125C288.332 11.858 289.639 12.6818 290.753 13.7841C291.878 14.8864 292.753 16.2727 293.378 17.9432C294.003 19.6023 294.315 21.5455 294.315 23.7727V25.767H272.207V21.267H287.48C287.48 20.2216 287.253 19.2955 286.798 18.4886C286.344 17.6818 285.713 17.0511 284.906 16.5966C284.111 16.1307 283.185 15.8977 282.128 15.8977C281.026 15.8977 280.048 16.1534 279.196 16.6648C278.355 17.1648 277.696 17.8409 277.219 18.6932C276.741 19.5341 276.497 20.4716 276.486 21.5057V25.7841C276.486 27.0795 276.724 28.1989 277.202 29.142C277.69 30.0852 278.378 30.8125 279.264 31.3239C280.151 31.8352 281.202 32.0909 282.418 32.0909C283.224 32.0909 283.963 31.9773 284.634 31.75C285.304 31.5227 285.878 31.1818 286.355 30.7273C286.832 30.2727 287.196 29.7159 287.446 29.0568L294.162 29.5C293.821 31.1136 293.122 32.5227 292.065 33.7273C291.02 34.9205 289.668 35.8523 288.009 36.5227C286.361 37.1818 284.457 37.5114 282.298 37.5114Z" fill="#141414"/>
<path d="M299.054 37V10.8182H306.315V37H299.054ZM302.702 7.44318C301.622 7.44318 300.696 7.08523 299.923 6.36932C299.162 5.64204 298.781 4.77273 298.781 3.76136C298.781 2.76136 299.162 1.90341 299.923 1.1875C300.696 0.460225 301.622 0.0965881 302.702 0.0965881C303.781 0.0965881 304.702 0.460225 305.463 1.1875C306.236 1.90341 306.622 2.76136 306.622 3.76136C306.622 4.77273 306.236 5.64204 305.463 6.36932C304.702 7.08523 303.781 7.44318 302.702 7.44318Z" fill="#141414"/>
<path d="M321.78 37.4261C319.791 37.4261 317.99 36.9148 316.376 35.892C314.774 34.858 313.501 33.3409 312.558 31.3409C311.626 29.3295 311.161 26.8636 311.161 23.9432C311.161 20.9432 311.643 18.4489 312.609 16.4602C313.575 14.4602 314.859 12.9659 316.462 11.9773C318.075 10.9773 319.842 10.4773 321.763 10.4773C323.229 10.4773 324.45 10.7273 325.428 11.2273C326.416 11.7159 327.212 12.3295 327.814 13.0682C328.428 13.7955 328.893 14.5114 329.212 15.2159H329.433V2.09091H336.678V37H329.518V32.8068H329.212C328.871 33.5341 328.388 34.2557 327.763 34.9716C327.149 35.6761 326.348 36.2614 325.359 36.7273C324.382 37.1932 323.189 37.4261 321.78 37.4261ZM324.081 31.6477C325.251 31.6477 326.24 31.3295 327.047 30.6932C327.865 30.0455 328.49 29.142 328.922 27.983C329.365 26.8239 329.587 25.4659 329.587 23.9091C329.587 22.3523 329.371 21 328.939 19.8523C328.507 18.7045 327.882 17.8182 327.064 17.1932C326.246 16.5682 325.251 16.2557 324.081 16.2557C322.888 16.2557 321.882 16.5795 321.064 17.2273C320.246 17.875 319.626 18.7727 319.206 19.9205C318.786 21.0682 318.575 22.3977 318.575 23.9091C318.575 25.4318 318.786 26.7784 319.206 27.9489C319.638 29.108 320.257 30.017 321.064 30.6761C321.882 31.3239 322.888 31.6477 324.081 31.6477Z" fill="#141414"/>
<path d="M350.114 37.4943C348.443 37.4943 346.955 37.2045 345.648 36.625C344.341 36.0341 343.307 35.1648 342.545 34.017C341.795 32.858 341.42 31.4148 341.42 29.6875C341.42 28.233 341.687 27.0114 342.222 26.0227C342.756 25.0341 343.483 24.2386 344.403 23.6364C345.324 23.0341 346.369 22.5795 347.54 22.2727C348.722 21.9659 349.96 21.75 351.256 21.625C352.778 21.4659 354.006 21.3182 354.938 21.1818C355.869 21.0341 356.545 20.8182 356.966 20.5341C357.386 20.25 357.597 19.8295 357.597 19.2727V19.1705C357.597 18.0909 357.256 17.2557 356.574 16.6648C355.903 16.0739 354.949 15.7784 353.71 15.7784C352.403 15.7784 351.364 16.0682 350.591 16.6477C349.818 17.2159 349.307 17.9318 349.057 18.7955L342.341 18.25C342.682 16.6591 343.352 15.2841 344.352 14.125C345.352 12.9545 346.642 12.0568 348.222 11.4318C349.812 10.7955 351.653 10.4773 353.744 10.4773C355.199 10.4773 356.591 10.6477 357.92 10.9886C359.261 11.3295 360.449 11.858 361.483 12.5739C362.528 13.2898 363.352 14.2102 363.955 15.3352C364.557 16.4489 364.858 17.7841 364.858 19.3409V37H357.972V33.3693H357.767C357.347 34.1875 356.784 34.9091 356.08 35.5341C355.375 36.1477 354.528 36.6307 353.54 36.983C352.551 37.3239 351.409 37.4943 350.114 37.4943ZM352.193 32.483C353.261 32.483 354.205 32.2727 355.023 31.8523C355.841 31.4205 356.483 30.8409 356.949 30.1136C357.415 29.3864 357.648 28.5625 357.648 27.642V24.8636C357.42 25.0114 357.108 25.1477 356.71 25.2727C356.324 25.3864 355.886 25.4943 355.398 25.5966C354.909 25.6875 354.42 25.7727 353.932 25.8523C353.443 25.9205 353 25.983 352.602 26.0398C351.75 26.1648 351.006 26.3636 350.369 26.6364C349.733 26.9091 349.239 27.2784 348.886 27.7443C348.534 28.1989 348.358 28.767 348.358 29.4489C348.358 30.4375 348.716 31.1932 349.432 31.7159C350.159 32.2273 351.08 32.483 352.193 32.483Z" fill="#141414"/>
</svg>
